<svg height="512pt" viewBox="0 0 512.00047 512" width="512pt" xmlns="http://www.w3.org/2000/svg"><path d="m409.601562 503.46875h-281.601562c-9.414062-.03125-17.039062-7.65625-17.066406-17.070312v-392.53125c.027344-9.414063 7.652344-17.039063 17.066406-17.066407h221.867188l51.199218 51.199219v179.199219zm0 0" fill="#a4c2f7"/><path d="m384 503.46875h-256c-9.414062-.03125-17.039062-7.65625-17.066406-17.070312v-392.53125c.027344-9.414063 7.652344-17.039063 17.066406-17.066407h213.332031l34.136719 51.199219v179.199219zm0 0" fill="#d4e1f4"/><path d="m503.46875 410.625c0 82.515625-63.234375 92.84375-94.890625 92.84375-4.132813.019531-8.265625-.179688-12.375-.597656-45.226563-4.523438-71.9375-34.476563-71.9375-81.921875 0-51.539063 63.234375-82.433594 63.234375-113.40625.015625-9.992188-1.101562-19.957031-3.328125-29.699219-1.5625-7.527344-3.96875-14.851562-7.167969-21.84375 0 0 126.464844 72.191406 126.464844 154.625zm0 0" fill="#d4e1f4"/><path d="m477.867188 410.625c0 72.191406-48.382813 89.171875-81.664063 92.246094-45.226563-4.523438-71.9375-34.476563-71.9375-81.921875 0-51.539063 63.234375-82.433594 63.234375-113.40625.015625-9.992188-1.101562-19.957031-3.328125-29.699219 37.460937 27.394531 93.695313 77.824219 93.695313 132.78125zm0 0" fill="#e3e7f2"/><path d="m401.066406 128h-34.132812c-9.425782 0-17.066406-7.640625-17.066406-17.066406v-34.132813zm0 0" fill="#a4c2f7"/><path d="m332.800781 42.667969h-256c-9.425781 0-17.066406 7.640625-17.066406 17.066406v392.53125c0 9.425781 7.640625 17.066406 17.066406 17.066406h34.132813v-375.464843c0-9.425782 7.640625-17.066407 17.066406-17.066407h221.867188v-17.066406c0-9.425781-7.640626-17.066406-17.066407-17.066406zm0 0" fill="#e3e7f2"/><path d="m281.601562 8.535156h-256c-9.425781 0-17.066406 7.640625-17.066406 17.066406v392.53125c0 9.425782 7.640625 17.066407 17.066406 17.066407h34.132813v-375.464844c0-9.425781 7.640625-17.066406 17.066406-17.066406h221.867188v-17.066407c0-9.425781-7.640625-17.066406-17.066407-17.066406zm0 0" fill="#d4e1f4"/><path d="m409.601562 401.066406s-34.132812 30.71875-34.132812 61.441406c0 20.480469 11.375 40.960938 34.132812 40.960938 22.757813 0 34.132813-20.480469 34.132813-40.960938 0-30.722656-34.132813-61.441406-34.132813-61.441406zm0 0" fill="#a4c2f7"/><path d="m153.601562 76.800781c-9.425781 0-17.066406 7.640625-17.066406 17.066407.027344-9.414063 7.652344-17.039063 17.066406-17.066407zm0 0" fill="#fff"/><path d="m25.601562 435.199219h25.597657c-9.425781 0-17.066407-7.640625-17.066407-17.066407v-392.53125c0-9.425781 7.640626-17.066406 17.066407-17.066406h-25.597657c-9.425781 0-17.066406 7.640625-17.066406 17.066406v392.53125c0 9.425782 7.640625 17.066407 17.066406 17.066407zm0 0" fill="#fff"/><path d="m0 418.132812v-392.53125h17.066406v392.53125zm0 0" fill="#fff"/><g fill="#428dff"><path d="m5.292969 357.71875c.480469.246094 1 .417969 1.535156.511719.5625.09375 1.132813.152343 1.707031.167969 2.257813-.03125 4.421875-.914063 6.058594-2.472657.769531-.816406 1.378906-1.773437 1.789062-2.816406 1.289063-3.183594.585938-6.824219-1.789062-9.300781-.816406-.773438-1.773438-1.378906-2.816406-1.792969-1.027344-.4375-2.128906-.667969-3.242188-.683594-2.261718.035157-4.421875.917969-6.058594 2.476563-3.300781 3.363281-3.300781 8.753906 0 12.117187l1.277344 1.023438c.476563.324219.992188.582031 1.539063.769531zm0 0"/><path d="m25.601562 443.734375h25.597657v8.53125c0 14.140625 11.460937 25.601563 25.601562 25.601563h25.601563v8.53125c0 14.140624 11.460937 25.601562 25.597656 25.601562h187.734375c4.710937 0 8.53125-3.820312 8.53125-8.53125 0-4.714844-3.820313-8.535156-8.53125-8.535156h-187.734375c-4.710938 0-8.53125-3.820313-8.53125-8.535156v-392.53125c0-4.714844 3.820312-8.535157 8.53125-8.535157h213.332031v25.601563c0 14.136718 11.464844 25.601562 25.601563 25.601562h25.601562v93.863282c0 4.714843 3.820313 8.535156 8.53125 8.535156 4.714844 0 8.535156-3.820313 8.535156-8.535156v-102.398438c0-.179688-.09375-.339844-.101562-.527344-.050781-.753906-.199219-1.496094-.445312-2.210937-.09375-.273438-.164063-.53125-.28125-.792969-.417969-.929688-.992188-1.777344-1.707032-2.5l-48.664062-48.703125v-13.53125c0-14.140625-11.464844-25.601563-25.601563-25.601563h-25.601562v-8.53125c0-14.140624-11.460938-25.601562-25.597657-25.601562h-256c-14.140624 0-25.601562 11.460938-25.601562 25.601562v290.132813c0 4.710937 3.820312 8.53125 8.535156 8.53125 4.710938 0 8.53125-3.820313 8.53125-8.53125v-290.132813c0-4.714843 3.820313-8.535156 8.535156-8.535156h256c4.710938 0 8.53125 3.820313 8.53125 8.535156v8.53125h-213.332031c-14.140625 0-25.601562 11.460938-25.601562 25.601563v366.933594h-25.597657c-4.714843 0-8.535156-3.820313-8.535156-8.535157v-34.132812c0-4.710938-3.820312-8.53125-8.53125-8.53125-4.714844 0-8.535156 3.820312-8.535156 8.53125v34.132812c0 14.140626 11.460938 25.601563 25.601562 25.601563zm341.332032-324.265625c-4.710938 0-8.53125-3.824219-8.53125-8.535156v-13.535156l22.066406 22.070312zm-298.667969-59.734375c0-4.714844 3.820313-8.535156 8.535156-8.535156h256c4.710938 0 8.53125 3.820312 8.53125 8.535156v8.53125h-213.332031c-14.136719 0-25.597656 11.460937-25.597656 25.601563v366.933593h-25.601563c-4.714843 0-8.535156-3.820312-8.535156-8.535156zm0 0"/><path d="m349.867188 187.734375h-187.734376c-4.710937 0-8.53125 3.820313-8.53125 8.53125 0 4.714844 3.820313 8.535156 8.53125 8.535156h187.734376c4.710937 0 8.535156-3.820312 8.535156-8.535156 0-4.710937-3.824219-8.53125-8.535156-8.53125zm0 0"/><path d="m162.132812 136.535156h68.269532c4.710937 0 8.53125-3.820312 8.53125-8.535156 0-4.710938-3.820313-8.53125-8.53125-8.53125h-68.269532c-4.710937 0-8.53125 3.820312-8.53125 8.53125 0 4.714844 3.820313 8.535156 8.53125 8.535156zm0 0"/><path d="m358.402344 238.933594c0-4.710938-3.824219-8.535156-8.535156-8.535156h-187.734376c-4.710937 0-8.53125 3.824218-8.53125 8.535156 0 4.710937 3.820313 8.535156 8.53125 8.535156h187.734376c4.710937 0 8.535156-3.824219 8.535156-8.535156zm0 0"/><path d="m349.867188 281.601562c0-4.714843-3.820313-8.535156-8.535157-8.535156h-179.199219c-4.710937 0-8.53125 3.820313-8.53125 8.535156 0 4.710938 3.820313 8.53125 8.53125 8.53125h179.199219c4.714844 0 8.535157-3.820312 8.535157-8.53125zm0 0"/><path d="m324.265625 324.265625c0-4.710937-3.820313-8.53125-8.53125-8.53125h-153.601563c-4.710937 0-8.53125 3.820313-8.53125 8.53125 0 4.714844 3.820313 8.535156 8.53125 8.535156h153.601563c4.710937 0 8.53125-3.820312 8.53125-8.535156zm0 0"/><path d="m256 358.398438h-93.867188c-4.710937 0-8.53125 3.824218-8.53125 8.535156 0 4.710937 3.820313 8.535156 8.53125 8.535156h93.867188c4.714844 0 8.535156-3.824219 8.535156-8.535156 0-4.710938-3.820312-8.535156-8.535156-8.535156zm0 0"/><path d="m162.132812 418.132812h85.335938c4.710938 0 8.53125-3.820312 8.53125-8.53125 0-4.714843-3.820312-8.535156-8.53125-8.535156h-85.335938c-4.710937 0-8.53125 3.820313-8.53125 8.535156 0 4.710938 3.820313 8.53125 8.53125 8.53125zm0 0"/><path d="m162.132812 460.800781h93.867188c4.714844 0 8.535156-3.820312 8.535156-8.535156 0-4.710937-3.820312-8.53125-8.535156-8.53125h-93.867188c-4.710937 0-8.53125 3.820313-8.53125 8.53125 0 4.714844 3.820313 8.535156 8.53125 8.535156zm0 0"/><path d="m381.203125 248.59375c-3.277344-1.867188-7.390625-1.363281-10.117187 1.242188-2.730469 2.601562-3.425782 6.6875-1.710938 10.046874 6.582031 15.019532 9.859375 31.277344 9.609375 47.675782 0 10.238281-11.402344 23.039062-23.46875 36.539062-17.722656 19.859375-39.78125 44.578125-39.78125 76.878906 0 56.148438 35.582031 91.023438 92.867187 91.023438h1 .605469c31.863281-.367188 101.792969-11.339844 101.792969-101.332031 0-86.453125-125.441406-159.035157-130.796875-162.074219zm28.621094 246.339844h-.378907c-17.476562-.121094-25.445312-16.851563-25.445312-32.425782 0-19.371093 16.5625-39.714843 25.601562-49.367187 9.035157 9.652344 25.597657 29.996094 25.597657 49.367187 0 15.546876-7.953125 32.246094-25.375 32.425782zm36.308593-5.898438c4.089844-8.242187 6.191407-17.328125 6.132813-26.527344 0-34.132812-35.445313-66.425781-36.957031-67.78125-3.246094-2.921874-8.171875-2.921874-11.417969 0-1.507813 1.355469-36.957031 33.648438-36.957031 67.78125-.039063 9.011719 1.984375 17.914063 5.914062 26.027344-25.789062-10.546875-40.046875-33.871094-40.046875-67.558594 0-25.789062 18.832031-46.890624 35.445313-65.511718 14.304687-16.027344 27.804687-31.148438 27.804687-47.90625 0-10.578125-1.160156-21.128906-3.464843-31.453125 34.609374 23.652343 102.347656 77.269531 102.347656 134.5625 0 48.347656-23.535156 69.496093-48.800782 78.34375zm0 0"/></g></svg>