<svg height="496pt" viewBox="0 -24 496.01563 496" width="496pt" xmlns="http://www.w3.org/2000/svg"><path d="m216 175.996094h272l-176-168-112 104s24 16 16 64zm0 0" fill="#57a4ff"/><path d="m488 431.996094h-48v-248h48c3.277344.003906 6.226562-1.992188 7.441406-5.039063 1.222656-3.023437.457032-6.488281-1.921875-8.71875l-176-168c-3.046875-2.941406-7.867187-2.976562-10.960937-.082031l-103.117188 95.203125c-12.507812-15.703125-31.371094-25.003906-51.441406-25.363281-39.679688 0-72 37.683594-72 84-.035156 9.492187 1.367188 18.933594 4.160156 28 4.742188 16.464844 14.46875 31.050781 27.839844 41.761718v25.839844l-56.160156 18.71875c-19.027344 6.3125-31.863282 24.113282-31.839844 44.160156v117.519532h-16c-4.417969 0-8 3.582031-8 8 0 4.421875 3.582031 8 8 8h480c4.417969 0 8-3.578125 8-8 0-4.417969-3.582031-8-8-8zm-274.558594-322.160156 98.480469-90.878907 156.078125 149.039063h-244.800781c.511719-3.976563.777343-7.984375.800781-12 .058594-15.910156-3.933594-31.574219-11.601562-45.519532.367187-.183593.714843-.398437 1.042968-.640624zm-112.402344 74.160156c-3.378906-8.945313-5.089843-18.433594-5.039062-28 0-37.519532 25.121094-68 56-68s56 30.480468 56 68c.003906 6.746094-.828125 13.464844-2.480469 20-.71875 2.722656-1.519531 5.441406-2.480469 8-4.902343 13.921875-14.453124 25.730468-27.039062 33.441406-7.273438 4.285156-15.558594 6.546875-24 6.558594-22.640625 0-42.238281-16.398438-50.960938-40zm-61.039062 130.480468c-.027344-13.175781 8.4375-24.867187 20.960938-28.957031l61.597656-20.5625c3.238281-1.128906 5.417968-4.171875 5.441406-7.597656v-22.242187c15.339844 6.507812 32.660156 6.507812 48 0v22.242187c.023438 3.425781 2.203125 6.46875 5.441406 7.597656l61.597656 20.5625c12.523438 4.089844 20.988282 15.78125 20.960938 28.957031v117.519532h-224zm264 117.519532h-24v-117.519532c-.011719-13.421874-5.847656-26.175781-16-34.957031v-15.523437h40zm64 0h-48v-168h48zm56 0h-40v-176c0-4.417969-3.582031-8-8-8h-120c-4.417969 0-8 3.582031-8 8v14.242187l-56-18.640625v-25.839844c13.324219-10.738281 23.015625-25.320312 27.761719-41.761718h204.238281zm0 0" fill="#004fac"/></svg>