<svg height="480pt" viewBox="-72 0 480 480" width="480pt" xmlns="http://www.w3.org/2000/svg"><path d="m232 104v-96h-208c-8.835938 0-16 7.164062-16 16v432c0 8.835938 7.164062 16 16 16h288c8.835938 0 16-7.164062 16-16v-352zm0 0" fill="#9bc9ff"/><path d="m328 104-96-96v96zm0 0" fill="#9bc9ff"/><g fill="#1e81ce"><path d="m335.894531 103.496094c-.039062-.699219-.175781-1.394532-.40625-2.054688-.089843-.257812-.152343-.503906-.265625-.753906-.386718-.871094-.925781-1.664062-1.597656-2.34375l-96-96c-.683594-.671875-1.480469-1.210938-2.351562-1.601562-.234376-.101563-.472657-.167969-.722657-.253907-.6875-.238281-1.40625-.382812-2.136719-.425781-.117187.015625-.253906-.0625-.414062-.0625h-208c-13.253906 0-24 10.746094-24 24v432c0 13.253906 10.746094 24 24 24h288c13.253906 0 24-10.746094 24-24v-352c0-.175781-.089844-.328125-.105469-.503906zm-27.207031-7.496094h-68.6875v-68.6875zm3.3125 368h-288c-4.417969 0-8-3.582031-8-8v-432c0-4.417969 3.582031-8 8-8h200v88c0 4.417969 3.582031 8 8 8h88v344c0 4.417969-3.582031 8-8 8zm0 0"/><path d="m144 192v-16c-.027344-22.082031-17.917969-39.972656-40-40v-24h-16v24c-22.082031.027344-39.972656 17.917969-40 40v32c.027344 22.082031 17.917969 39.972656 40 40h16c13.253906 0 24 10.746094 24 24v32c0 13.253906-10.746094 24-24 24h-16c-13.253906 0-24-10.746094-24-24v-16h-16v16c.027344 22.082031 17.917969 39.972656 40 40v24h16v-24c22.082031-.027344 39.972656-17.917969 40-40v-32c-.027344-22.082031-17.917969-39.972656-40-40h-16c-13.253906 0-24-10.746094-24-24v-32c0-13.253906 10.746094-24 24-24h16c13.253906 0 24 10.746094 24 24v16zm0 0"/><path d="m200 208h96v16h-96zm0 0"/><path d="m200 256h96v16h-96zm0 0"/><path d="m200 304h96v16h-96zm0 0"/><path d="m200 160h96v16h-96zm0 0"/></g></svg>