<svg height="512pt" viewBox="0 0 512 512" width="512pt" xmlns="http://www.w3.org/2000/svg"><path d="m60 512v-124h-60v-388h512v388h-341.777344zm0 0" fill="#76e2f8"/><path d="m254 0h258v388h-258zm0 0" fill="#28c7f7"/><g fill="#60508e"><path d="m135 119h238v30h-238zm0 0"/><path d="m135 179h238v30h-238zm0 0"/><path d="m134 238h179v30h-179zm0 0"/></g><path d="m254 238h59v30h-59zm0 0" fill="#2d0057"/><path d="m254 179h119v30h-119zm0 0" fill="#2d0057"/><path d="m254 119h119v30h-119zm0 0" fill="#2d0057"/></svg>