<svg height="479pt" viewBox="0 0 479 479.20902" width="479pt" xmlns="http://www.w3.org/2000/svg"><path d="m361.785156 99.601562c-2.5625-1.199218-5.199218-2.398437-7.839844-3.441406-18.417968-7.464844-38.5-9.867187-58.160156-6.957031-1.199218.160156-2.402344.398437-3.601562.558594-11.609375 2.136719-22.808594 6.078125-33.199219 11.679687-45.4375 24.53125-68.199219 76.953125-55.101563 126.902344 13.097657 49.945312 58.65625 84.453125 110.285157 83.53125 51.625-.925781 95.921875-37.042969 107.226562-87.425781 11.300781-50.382813-13.324219-101.960938-59.609375-124.847657zm0 0" fill="#9bc9ff"/><g fill="#1e81ce"><path d="m371.953125 96c2.761719-7.699219 4.167969-15.820312 4.152344-24 .070312-30.339844-18.933594-57.457031-47.476563-67.746094-28.546875-10.285156-60.476562-1.527344-79.78125 21.882813-.976562-.238281-1.894531-.589844-2.902344-.800781-4.558593-.90625-9.195312-1.355469-13.839843-1.335938-33.21875-.054688-62.148438 22.660156-69.972657 54.945312-7.824218 32.28125 7.492188 65.722657 37.050782 80.878907-21.230469 59.773437 7.753906 125.742187 66.144531 150.527343 58.386719 24.789063 125.976563-.183593 154.226563-56.976562 28.253906-56.789062 7.390624-125.761719-47.601563-157.375zm-67.847656-80c30.914062.035156 55.964843 25.089844 56 56 .015625 5.757812-.867188 11.480469-2.625 16.960938l-.503907-.199219c-14.238281-5.828125-29.484374-8.804688-44.871093-8.761719-3.121094 0-6.226563.136719-9.289063.378906h-.382812c-.105469-.480468-.28125-.929687-.394532-1.402344-.230468-.941406-.519531-1.863281-.796874-2.800781-.617188-2.140625-1.320313-4.246093-2.128907-6.308593-.375-.96875-.746093-1.921876-1.160156-2.867188-.992187-2.238281-2.105469-4.40625-3.304687-6.519531-.335938-.589844-.617188-1.207031-.96875-1.78125-1.558594-2.554688-3.273438-5.007813-5.136719-7.347657-.65625-.796874-1.375-1.597656-2.0625-2.398437-1.320313-1.527344-2.679688-3-4.128907-4.40625-.878906-.867187-1.773437-1.699219-2.703124-2.511719-1.472657-1.296875-3.007813-2.503906-4.582032-3.683594-.914062-.679687-1.792968-1.390624-2.738281-2.023437-2.363281-1.589844-4.820313-3.035156-7.359375-4.328125 10.433594-10.269531 24.496094-16.015625 39.136719-16zm-128 80c.035156-30.910156 25.085937-55.964844 56-56 3.613281-.011719 7.222656.347656 10.765625 1.066406 2.222656.410156 4.410156.996094 6.539062 1.75 2.460938.800782 4.867188 1.773438 7.199219 2.90625.800781.375 1.480469.796875 2.222656 1.230469 1.503907.800781 2.992188 1.648437 4.402344 2.585937.796875.550782 1.597656 1.167969 2.398437 1.757813 1.230469.921875 2.457032 1.863281 3.609376 2.878906.796874.691407 1.503906 1.417969 2.238281 2.136719 1.066406 1.066406 2.089843 2.15625 3.0625 3.265625.679687.800781 1.34375 1.597656 1.976562 2.398437.914063 1.183594 1.761719 2.402344 2.578125 3.671876.558594.863281 1.117188 1.722656 1.597656 2.609374.800782 1.351563 1.457032 2.757813 2.113282 4.175782.414062.871094.855468 1.734375 1.214844 2.632812.664062 1.640625 1.199218 3.335938 1.703124 5.039063.226563.742187.507813 1.457031.699219 2.207031 0 .136719.039063.28125.070313.410156-.960938.214844-1.894532.503906-2.847656.734375-1.183594.289063-2.398438.585938-3.527344.914063-1.769532.488281-3.519532 1.046875-5.265625 1.597656-1.09375.359375-2.199219.695312-3.285157 1.089844-1.898437.6875-3.761718 1.453125-5.601562 2.230468-.894531.375-1.800781.710938-2.6875 1.105469-2.730469 1.222657-5.425781 2.527344-8.074219 3.949219-2.824219 1.523438-5.597656 3.203125-8.246093 4.90625-.914063.589844-1.785157 1.246094-2.679688 1.863281-1.738281 1.191407-3.464844 2.398438-5.136719 3.671875-1.015625.800782-1.984375 1.601563-2.976562 2.398438-1.480469 1.210937-2.945313 2.402344-4.367188 3.714844-1 .902343-1.960937 1.839843-2.929687 2.773437-1.335938 1.28125-2.636719 2.578125-3.910156 3.921875-.9375 1.003906-1.863282 2.019531-2.769532 3.046875-1.207031 1.367187-2.398437 2.777344-3.542968 4.199219-.847657 1.066406-1.695313 2.128906-2.511719 3.203125-1.121094 1.496093-2.191407 3.023437-3.25 4.566406-.734375 1.097656-1.484375 2.183594-2.199219 3.304687-1.054688 1.671876-2.039062 3.382813-3.007812 5.101563-.597657 1.058594-1.222657 2.089844-1.78125 3.160156-.160157.3125-.355469.609375-.515626.914063-17.953124-9.828125-29.160156-28.621094-29.277343-49.089844zm221.269531 163.441406c-26.910156 38.386719-76.195312 53.996094-120.296875 38.097656-44.105469-15.898437-72.09375-59.363281-68.320313-106.09375 3.773438-46.730468 38.375-85.140624 84.457032-93.757812l3.753906-.574219c2.34375-.351562 4.726562-.609375 7.128906-.800781.910156-.070312 1.824219-.078125 2.734375-.128906 1.480469-.070313 2.96875-.148438 4.457031-.15625.800782 0 1.597657 0 2.464844.046875 2.164063.03125 4.320313.132812 6.460938.304687 1.058594.085938 2.121094.160156 3.203125.269532 2.636719.289062 5.261719.65625 7.855469 1.144531 1 .183593 1.984374.441406 2.976562.65625 1.917969.417969 3.839844.878906 5.734375 1.417969.984375.269531 1.96875.558593 2.945313.863281 2.726562.855469 5.4375 1.773437 8.109374 2.871093 2.449219.960938 4.890626 2.070313 7.265626 3.199219 27.128906 13.433594 47.046874 38.03125 54.554687 67.355469 7.507813 29.328125 1.855469 60.46875-15.484375 85.285156zm0 0"/><path d="m281.191406 125.832031c-2.09375-3.894531-6.945312-5.351562-10.839844-3.253906-17.445312 9.433594-31.203124 24.472656-39.046874 42.6875-4.757813 10.960937-7.207032 22.785156-7.199219 34.734375 0 4.417969 3.582031 8 8 8s8-3.582031 8-8c-.015625-9.769531 1.972656-19.4375 5.847656-28.40625 6.429687-14.910156 17.703125-27.214844 32-34.921875 3.886719-2.097656 5.339844-6.949219 3.238281-10.839844zm0 0"/><path d="m243.425781 221.601562c-1.417969-4.089843-5.832031-6.308593-9.960937-5.011718-4.128906 1.300781-6.476563 5.648437-5.296875 9.8125 2.011719 6.351562 4.742187 12.453125 8.136719 18.183594 2.253906 3.800781 7.160156 5.058593 10.964843 2.804687 3.800781-2.253906 5.054688-7.164063 2.804688-10.964844-2.773438-4.671875-5.003907-9.644531-6.648438-14.824219zm0 0"/><path d="m312.105469 160c8.835937 0 16 7.164062 16 16 0 4.417969 3.582031 8 8 8s8-3.582031 8-8c-.054688-14.546875-9.914063-27.226562-24-30.863281v-9.136719c0-4.417969-3.582031-8-8-8s-8 3.582031-8 8v9.136719c-15.585938 4.011719-25.753907 18.996093-23.722657 34.960937s15.628907 27.921875 31.722657 27.902344c.214843 0 .390625-.101562.597656-.117188.210937-.015624.378906.144532.59375.160157 8.808594.660156 15.417969 8.335937 14.757813 17.148437-.65625 8.808594-8.332032 15.417969-17.144532 14.761719s-15.421875-8.332031-14.765625-17.144531c.28125-2.886719-1.023437-5.699219-3.410156-7.351563-2.386719-1.648437-5.480469-1.878906-8.082031-.597656-2.605469 1.277344-4.3125 3.867187-4.460938 6.765625-1.167968 15.4375 8.914063 29.480469 23.914063 33.3125v9.0625c0 4.417969 3.582031 8 8 8s8-3.582031 8-8v-9.125c15.15625-3.890625 25.261719-18.1875 23.871093-33.773438-1.390624-15.582031-13.867187-27.867187-29.472656-29.011718-.40625.019531-.808594.066406-1.207031.144531-.390625-.109375-.789063-.183594-1.191406-.234375-8.835938 0-16-7.160156-16-16 0-8.835938 7.164062-16 16-16zm0 0"/><path d="m208.105469 96c0-13.253906 10.746093-24 24-24 4.417969 0 8-3.582031 8-8s-3.582031-8-8-8c-22.082031.027344-39.972657 17.921875-40 40 0 4.417969 3.582031 8 8 8s8-3.582031 8-8zm0 0"/><path d="m304.105469 48c13.253906 0 24 10.746094 24 24 0 4.417969 3.582031 8 8 8s8-3.582031 8-8c-.027344-22.078125-17.921875-39.972656-40-40-4.417969 0-8 3.582031-8 8s3.582031 8 8 8zm0 0"/><path d="m474.863281 327.203125c-8.910156-15.214844-28.394531-20.433594-43.71875-11.714844l-84.03125 48.511719c-1.632812-13.261719-11.222656-24.167969-24.167969-27.480469l-75.296874-13.316406c-10.769532-2.457031-21.148438-6.398437-30.832032-11.714844-19.972656-10.390625-42.195312-15.710937-64.710937-15.488281-22.132813-.316406-44 4.816406-63.679688 14.945312-2.878906 1.417969-5.875 2.585938-8.953125 3.480469-12.636718 3.8125-25.777344 5.703125-38.976562 5.601563h-32.390625c-4.417969 0-8 3.578125-8 8v111.972656c0 4.417969 3.582031 8 8 8h48.695312c4.457031 0 8.90625.339844 13.3125 1.007812l194.855469 29.832032c5.582031.984375 11.335938-.019532 16.253906-2.839844l181.921875-105.039062c9.953125-5.671876 16.070313-16.273438 16-27.726563 0-5.628906-1.476562-11.15625-4.28125-16.03125zm-19.71875 29.871094-181.960937 105.0625c-1.703125.945312-3.683594 1.273437-5.597656.921875l-195.050782-29.863282c-5.207031-.792968-10.46875-1.191406-15.734375-1.195312h-40.695312v-96h24.390625c14.8125.117188 29.558594-2.011719 43.738281-6.300781 4.042969-1.183594 7.96875-2.738281 11.726563-4.648438 17.386718-8.816406 36.648437-13.292969 56.144531-13.050781 19.824219-.238281 39.40625 4.390625 57.023437 13.488281 11.09375 6.085938 22.988282 10.574219 35.335938 13.34375l75 13.296875c4.109375 1.097656 7.609375 3.789063 9.734375 7.472656 2.121093 3.683594 2.6875 8.0625 1.578125 12.167969-.355469 1.324219-.894532 2.59375-1.601563 3.769531v.0625h-.039062c-3.742188 6.097657-10.980469 9.097657-17.9375 7.433594-.292969-.082031-101.949219-14.984375-101.949219-14.984375-2.871094-.507812-5.789062.585938-7.617188 2.851563-1.832031 2.269531-2.285156 5.351562-1.183593 8.050781 1.105469 2.695313 3.585937 4.582031 6.480469 4.921875 0 0 105.679687 15.671875 108.328124 15.679688h.109376c10.546874-.003907 20.410156-5.230469 26.335937-13.953126l97.410156-56.257812c4.953125-2.871094 11.0625-2.882812 16.023438-.023438 4.960937 2.863282 8.015625 8.15625 8.007812 13.882813.039063 5.730469-3.023437 11.03125-8 13.871094zm0 0"/></g></svg>