<svg height="496pt" viewBox="0 -128 496.02019 496" width="496pt" xmlns="http://www.w3.org/2000/svg"><path d="m72 8.011719h416l-16 224h-416zm0 0" fill="#57a4ff"/><g fill="#004fac"><path d="m66.808594 80.761719c2.117187.167969 4.214844-.523438 5.820312-1.914063 1.609375-1.394531 2.589844-3.371094 2.722656-5.492187l1.480469-20.640625 189.769531 98.398437c1.136719.589844 2.402344.898438 3.6875.898438 1.203126 0 2.390626-.273438 3.472657-.800781l202.980469-97.96875-12.191407 170.769531h-400.550781v-8c0-4.417969-3.582031-8-8-8s-8 3.582031-8 8v16c0 4.417969 3.582031 8 8 8h416c4.207031.007812 7.703125-3.238281 8-7.433594l16-224c.15625-2.21875-.613281-4.402344-2.132812-6.027344-1.515626-1.625-3.644532-2.54687475-5.867188-2.5390622h-416c-4.207031-.0117188-7.703125 3.2343752-8 7.4296872l-4.625 64.800782c-.296875 4.402343 3.03125 8.214843 7.433594 8.519531zm412.597656-64.75-1.34375 18.839843-207.664062 100.214844-192.328126-99.734375 1.378907-19.320312zm0 0"/><path d="m112 152.011719h16c4.417969 0 8-3.582031 8-8s-3.582031-8-8-8h-16c-4.417969 0-8 3.582031-8 8s3.582031 8 8 8zm0 0"/><path d="m0 144.011719c0 4.417969 3.582031 8 8 8h78c4.417969 0 8-3.582031 8-8s-3.582031-8-8-8h-78c-4.417969 0-8 3.582031-8 8zm0 0"/><path d="m96 96.011719h-20c-4.417969 0-8 3.582031-8 8s3.582031 8 8 8h20c4.417969 0 8-3.582031 8-8s-3.582031-8-8-8zm0 0"/><path d="m39.910156 112.011719c4.421875 0 8-3.582031 8-8s-3.578125-8-8-8h-15.910156c-4.417969 0-8 3.582031-8 8s3.582031 8 8 8zm0 0"/><path d="m32 184.011719c0 4.417969 3.582031 8 8 8h72c4.417969 0 8-3.582031 8-8s-3.582031-8-8-8h-72c-4.417969 0-8 3.582031-8 8zm0 0"/></g></svg>